<?xml version="1.0" encoding="UTF-8"?>
<svg id="Layer_1" xmlns="http://www.w3.org/2000/svg" version="1.1" viewBox="0 0 16 16">
  <!-- Generator: Adobe Illustrator 29.6.1, SVG Export Plug-In . SVG Version: 2.1.1 Build 9)  -->
  <defs>
    <style>
      .st0 {
        fill: #8cc63f;
        stroke: #000;
        stroke-miterlimit: 10;
        stroke-width: .05px;
      }
    </style>
  </defs>
  <path class="st0" d="M3.73,12.26c-.2-.65-.33-1.32-.36-1.99,0-.04,0-.09.02-.13.05-.1.21-.08.28-.18,0,.42.02.84.03,1.26,0,.04,0,.08.03.1.05.04.14-.02.19.03.02.02.03.05.03.08.01.16-.02.33-.08.48.02.06.12.02.17.05.02.01.04.04.04.07.04.13,0,.27,0,.41s.13.15.14.07c0-.03.15.11.16.13.05.09.04.19.04.28,0,.12.05.4-.13.43-.23.05-.47-.91-.53-1.1Z"/>
  <path class="st0" d="M5.4,1.93c0-.09.01-.18-.02-.26s-.13-.15-.21-.11c-.08.03-.11.14-.18.19-.12.08-.26-.03-.36-.12-.27-.24-.58-.44-.92-.57-.07.08-.06.21,0,.3.06.09.16.14.26.19.18.09.35.19.53.28.07.04.14.08.19.15.04.07.05.17-.01.22-.04.03-.09.04-.13.04-.21.02-.42.02-.62,0-.05.06-.08.15-.06.24.18.01.37,0,.56-.01.01.05,0,.11-.03.16-.17.39-.45.72-.63,1.11-.14.29-.21.61-.28.93-.12.55-.22,1.09-.31,1.64.02,0,.03,0,.05,0,.17-.16.38-.27.6-.38.43-.22.8-.54,1.17-.86.13-.11.26-.23.35-.38.09-.16.12-.34.15-.52.04-.23.07-.46.07-.7,0-.52-.17-1.03-.14-1.54Z"/>
  <path class="st0" d="M3.62,8.89c-.05-.07-.12-.12-.16-.2s-.04-.19.03-.23c.02-.02.05-.03.08-.04.13-.07.16-.29.04-.38-.05.06-.12.09-.19.1.05-.17.08-.39-.06-.51-.02-.02-.05-.04-.07-.06-.02-.03-.03-.08-.03-.12,0-.27.26-.53.15-.79-.12-.02-.23.07-.28.18-.05.11-.04.24-.03.36.03.44.08.89.12,1.33.02.18.03.35.03.53,0,.13,0,.26-.01.39,0,.09-.04.23.05.29.03.02.06.02.09.03.04,0,.08,0,.11,0,.01,0,.03,0,.04,0,.01,0,.02-.02.03-.03.03-.05.07-.11.1-.16.14-.21.12-.47-.04-.67Z"/>
  <path class="st0" d="M6.48,6.95c-.04-.19-.09-.38-.12-.58-.05-.3-.04-.6-.05-.9-.02-1.29-.23-2.58-.63-3.81-.03-.09-.06-.18-.14-.22-.01.38.15.73.24,1.1.1.42.09.86.13,1.3.04.45.14.9.21,1.35.25,1.64.12,3.31-.01,4.96-.03.42-.07.85-.15,1.26-.08.39-.2.77-.32,1.15-.11.35-.22.69-.33,1.04-.02.08-.06.15-.08.23-.16.13-.25.33-.26.53,0,0,0,.12.01.17.51-.55.76-1.3.89-2.04.13-.74.14-1.5.26-2.24.17-1.1.55-2.2.35-3.3Z"/>
  <path class="st0" d="M4.7,10.82c.12-.19.34-.32.43-.53.02-.04.03-.09.06-.13s.1-.04.12,0c.01.02,0,.04,0,.06-.03.33-.11.65-.22.96-.08.21-.15.57-.4.64-.61.18-.13-.81,0-1.01Z"/>
  <path class="st0" d="M3.95,10.28c-.08.08-.13.19-.14.31,0,.02,0,.04,0,.05.01.01.03.02.05.02.08.02.17.03.23-.02.02-.02.04-.05.05-.07.05-.08.09-.16.14-.23.05-.08.09-.16.11-.25s0-.19-.06-.26-.19-.07-.25,0c-.03.03-.04.07-.05.11-.03.12-.06.24-.1.36"/>
  <path class="st0" d="M4.45,7.76c.05.16.06.34.04.51-.25-.18-.41.38-.48.04-.03-.12.05-.3.12-.4.02-.03.29-.27.32-.15Z"/>
  <path class="st0" d="M5.28,9.13c0,.06.02.13.01.19,0,.04-.03.1-.05.14-.02.03-.04.07-.07.08-.04.02-.08.01-.12,0,0,0-.02,0-.03,0,0,0-.01-.02-.02-.03-.03-.08-.04-.17-.04-.25,0-.03,0-.07.02-.1.02-.03.04-.05.05-.08.07-.17-.11-.36-.06-.54.04-.14.18-.21.32-.26s.28-.13.31-.27c.06.13.12.27.07.4-.03.07-.1.12-.15.18s-.09.14-.06.21c.05.02.1-.02.14-.05s.11-.05.14-.01c.02.02.02.05.02.08,0,.13-.03.26-.09.38-.02.04-.04.08-.09.1-.11.03-.19-.18-.3-.15Z"/>
  <path class="st0" d="M3.7,6.39s.05-.03.07-.04c.05-.02.09-.05.14-.08.09-.05.19-.11.28-.16.18-.11.36-.23.53-.36.06-.05.13-.09.2-.1.02,0,.04,0,.05,0,.02.01.03.04.04.06.07.3-.04.62-.2.89-.02.03-.04.07-.07.09-.05.04-.12.05-.18.06-.02,0-.04,0-.06,0-.05-.02-.03-.09-.04-.14-.02-.09-.12-.13-.21-.15-.03,0-.07-.02-.1,0-.07.02-.08.12-.11.19-.03.07-.11.12-.18.12-.06,0-.11-.02-.16-.05-.02-.02-.03-.03-.05-.04-.02-.01-.04,0-.06-.04-.01-.02-.01-.05,0-.07,0-.07.03-.13.07-.19.01-.01.03,0,.05,0Z"/>
  <path class="st0" d="M5.13,13.37c-.08.16-.07.35-.14.51-.06.13-.19.23-.25.37-.09.18-.06.4-.14.58.02-.06-.05-.27-.05-.34,0-.13.01-.26.04-.38.05-.21.16-.4.26-.59.08-.15.17-.41.32-.5.32-.2.02.27-.03.36Z"/>
  <path class="st0" d="M5.6,12.03c-.02.1-.07.18-.13.26-.03.03-.03.07-.05.1s-.06.06-.09.09-.07.06-.11.07-.09.02-.13,0c-.06-.03-.07-.07-.04-.12.01-.02.02-.04.03-.06,0-.02,0-.05,0-.07,0-.16,0-.32.03-.47s.07-.31.11-.46c.03-.1.05-.2.08-.3.03-.12.09-.26.21-.27.03,0,.06,0,.08.02.03.03.04.08.04.13,0,.25,0,.5,0,.75,0,.1,0,.21-.03.31Z"/>
  <path class="st0" d="M5.4,6.43c-.1-.03-.12-.16-.12-.26,0-.09,0-.17,0-.26,0-.04,0-.08.01-.12.01-.03.04-.06.06-.09.15-.18.3-.36.45-.53.1.13.11.31.11.47,0,.25.19,1.77-.06,1.84-.18.05-.28-.28-.28-.4,0-.15.06-.29.05-.44-.02-.21-.06-.15-.22-.21Z"/>
  <path class="st0" d="M4.68,8.59c.05.02.08.08.07.14,0,.02,0,.04,0,.05,0,.04-.02.07-.04.1-.02.05-.04.11-.07.16-.22.54-.34-.63.04-.46Z"/>
  <path class="st0" d="M5.59,4.52s.04-.03.06-.04c.09-.03.19.07.19.16s-.04.19-.09.27c-.09.14-.36.62-.43.24-.04-.22.1-.5.27-.63Z"/>
  <path class="st0" d="M4.95,7.56c.07,0,.16,0,.2-.06.06-.08,0-.2-.08-.25-.14-.08-.89-.34-.88,0,0,.18.19.11.32.12.11,0,.17.01.26.07.08.05.06.12.17.12Z"/>
</svg>