<?xml version="1.0" encoding="UTF-8"?>
<svg id="Layer_1" xmlns="http://www.w3.org/2000/svg" version="1.1" viewBox="0 0 16 16">
  <!-- Generator: Adobe Illustrator 29.6.1, SVG Export Plug-In . SVG Version: 2.1.1 Build 9)  -->
  <defs>
    <style>
      .st0 {
        stroke: #000;
        stroke-width: .75px;
      }

      .st0, .st1 {
        stroke-miterlimit: 10;
      }

      .st1 {
        fill: #8cc63f;
        stroke: #8cc63f;
        stroke-width: .25px;
      }
    </style>
  </defs>
  <path class="st1" d="M12.68,6.04c.11.01.25-.02.35.04.16.09.14.32.01.42-.25.22-.59.16-.76-.17-.09-.15-.17-.34-.03-.38.13-.02.27.08.41.09h.02Z"/>
  <path class="st1" d="M2.62,8.56c-.06-.12-.18-.21-.29-.28-.3-.17-.68-.57-1.01-.36-.13.13-.15.4-.07.58.1.2.41.19.67.24.2.02.8.22.71-.15v-.02Z"/>
  <path class="st1" d="M12.5,7.67c-.02.11-.19.17-.28.1-.16-.12-.24-.58-.17-.65.09-.09.48.44.46.53v.02Z"/>
  <path class="st1" d="M11.05,11.79c.34.31.9.4,1.26.63.35.26-.08.4-.35.36-.52-.02-1-.45-1.43-.57-.11-.03-.23-.04-.33,0-.51.25.39.67.32.95-.16.19-.61-.13-.79.09-.11.12-.12.44-.11.75,0,.36,0,.75-.09,1.08-.22.73-.75.46-.62-.2.05-.35.21-.72.15-1.08-.05-.34-.3-.63-.33-.8.01-.07.1,0,.14.03.42.3.46.92.42,1.37,0,.2,0,.3.07.25.09-.1.13-.28.15-.41.1-.33-.13-1.04.21-1.18.16-.04.38.02.53.02.48,0-.75-.6-.37-.99.66-.51,1.36.49,2,.5.18,0,.15-.12.05-.2-.25-.24-.97-.44-1.24-.8-.24-.33.25.1.35.18l.02.02Z"/>
  <path class="st1" d="M3.54,4.75c-.32-.24-.81-.24-1.14-.4-.33-.19.02-.38.26-.38.45-.05.9.28,1.28.33.09.01.2,0,.28-.04.41-.3-.41-.56-.38-.83.12-.2.53.04.66-.19.08-.12.05-.42.02-.7-.04-.33-.08-.68-.04-1,.11-.7.59-.53.55.1,0,.33-.1.68-.01,1,.08.31.32.53.36.69,0,.06-.09.01-.13,0-.39-.21-.49-.78-.5-1.2-.01-.19-.04-.28-.08-.22-.07.1-.08.27-.09.4-.05.31.22.93-.05,1.11-.13.06-.32.03-.45.05-.41.07.7.45.42.85-.51.56-1.22-.26-1.76-.19-.16.02-.11.13-.02.19.24.18.88.27,1.14.57.24.27-.22-.06-.32-.12h-.02Z"/>
  <path class="st1" d="M2.89,7.43c.02-.07.16-.1.23-.05.12.1.17.42.11.46-.08.05-.37-.34-.35-.4h0Z"/>
  <path class="st0" d="M6.17,6.02c-1.06,2.35.78,1.95,1.37,2.1.08.03.3.07.2.34-.44.72-1.16.92-1.71,1.16-1.24.5-2.53,1-3.71,2.03-1.35,1.41.3,1.93.94,1.85,2.01-.16,4.07-.96,5.86-2.99,1.48-2,.83-3.85-.59-4.2-.2-.11-1.15-.25-.67-.79.62-.65,2.13-.91,2.97-1.1.72-.18,1.35-.35,1.77-.9.58-.91-.55-1.24-.86-1.25-1.8-.04-4.12,1.25-5.54,3.71l-.02.04Z"/>
</svg>